<?xml version="1.0" encoding="UTF-8"?>
<svg xmlns="http://www.w3.org/2000/svg" width="24" height="24" viewBox="0 0 24 24" fill="#ffffff">
  <path d="M12 .5C5.73.5.5 5.74.5 12.02c0 5.11 3.29 9.44 7.86 10.98.58.11.79-.25.79-.56 
           0-.28-.01-1.02-.02-2-3.2.69-3.88-1.54-3.88-1.54-.53-1.35-1.29-1.71-1.29-1.71-1.05-.72.08-.71.08-.71 
           1.16.08 1.78 1.19 1.78 1.19 1.04 1.79 2.72 1.27 3.39.97.11-.75.41-1.27.74-1.56-2.55-.29-5.23-1.28-5.23-5.7 
           0-1.26.45-2.29 1.19-3.1-.12-.29-.52-1.47.11-3.06 0 0 .97-.31 3.18 1.18a11.14 11.14 0 0 1 2.9-.39c.99 0 
           1.99.13 2.9.39 2.21-1.49 3.18-1.18 3.18-1.18.63 1.59.23 2.77.11 3.06.74.81 1.19 1.84 1.19 3.1 
           0 4.43-2.69 5.41-5.25 5.69.42.36.8 1.09.8 2.2 
           0 1.59-.01 2.87-.01 3.26 0 .31.21.68.8.56A10.53 10.53 0 0 0 23.5 12C23.5 5.74 18.27.5 12 .5Z"/>
</svg>
